<svg width="512" height="512" viewBox="0 0 512 512" fill="none" xmlns="http://www.w3.org/2000/svg">
<g clip-path="url(#clip0_489_2)">
<path fill-rule="evenodd" clip-rule="evenodd" d="M512 256C512 188.105 485.029 122.99 437.019 74.9807C389.01 26.9713 323.895 0 256 0C188.105 0 122.99 26.9713 74.9807 74.9807C26.9713 122.99 0 188.105 0 256C0 323.895 26.9713 389.01 74.9807 437.019C122.99 485.029 188.105 512 256 512C323.895 512 389.01 485.029 437.019 437.019C485.029 389.01 512 323.895 512 256ZM347.758 323.182C348.528 320.273 349.866 317.544 351.694 315.153C353.521 312.762 355.803 310.756 358.408 309.249C361.013 307.742 363.89 306.765 366.874 306.372C369.858 305.98 372.89 306.181 375.796 306.963C378.702 307.746 381.425 309.095 383.808 310.932C386.192 312.769 388.189 315.059 389.685 317.671C391.181 320.282 392.147 323.163 392.527 326.148C392.907 329.134 392.694 332.165 391.899 335.067C383.799 364.903 366.105 391.243 341.547 410.022C316.989 428.801 286.934 438.976 256.018 438.976C225.103 438.976 195.047 428.801 170.489 410.022C145.932 391.243 128.237 364.903 120.137 335.067C118.589 329.223 119.419 323.003 122.447 317.77C125.474 312.536 130.451 308.716 136.289 307.144C142.127 305.572 148.35 306.377 153.596 309.383C158.842 312.388 162.683 317.35 164.279 323.182C169.765 343.309 181.718 361.074 198.296 373.739C214.874 386.403 235.156 393.264 256.018 393.264C276.88 393.264 297.163 386.403 313.741 373.739C330.319 361.074 342.272 343.309 347.758 323.182ZM367.653 142.336C403.968 97.8286 442.258 129.463 442.77 163.547C442.77 214.345 382.062 256 367.689 256C353.317 256 292.571 214.309 292.571 163.584C293.083 129.463 331.374 97.792 367.653 142.336ZM69.2297 163.547C69.7417 129.463 108.032 97.8286 144.311 142.336C180.626 97.8286 218.917 129.463 219.429 163.547C219.429 214.382 158.72 256 144.311 256C129.975 256 69.2297 214.272 69.2297 163.547Z" fill="white"/>
</g>
<defs>
<clipPath id="clip0_489_2">
<rect width="512" height="512" fill="white"/>
</clipPath>
</defs>
</svg>
